<svg width="512" height="512" viewBox="0 0 512 512" fill="none" xmlns="http://www.w3.org/2000/svg">
<rect width="512" height="512" rx="256" fill="white"/>
<path d="M293.001 135H380V375H290.921C290.921 365.049 287.282 356.607 280.003 349.675C272.84 342.631 264.116 339.109 253.834 339.109C243.551 339.109 234.828 342.631 227.665 349.675C220.386 356.607 216.746 365.049 216.746 375H132V135H218.999C218.999 144.951 222.581 153.393 229.744 160.325C237.023 167.369 245.746 170.891 255.913 170.891C266.196 170.891 274.977 167.369 282.256 160.325C289.419 153.393 293.001 144.951 293.001 135Z" fill="black"/>
</svg>
